<!-- Generated by IcoMoon.io -->
<svg version="1.1" xmlns="http://www.w3.org/2000/svg" width="32" height="32" viewBox="0 0 32 32">
<title>cash</title>
<path fill="#00ff4b" d="M7.333 5.333c-0.451-0.006-0.667 0.33-0.667 0.667s0.216 0.673 0.667 0.667h22.667c0.381 0 0.667 0.286 0.667 0.667v13.333c-0.006 0.451 0.33 0.667 0.667 0.667s0.673-0.216 0.667-0.667v-13.333c0-1.096-0.904-2-2-2zM4.667 8c-0.451-0.006-0.667 0.33-0.667 0.667s0.216 0.673 0.667 0.667h22.667c0.381 0 0.667 0.286 0.667 0.667v13.333c-0.006 0.451 0.33 0.667 0.667 0.667s0.673-0.216 0.667-0.667v-13.333c0-1.096-0.904-2-2-2zM2 10.667c-1.096 0-2 0.904-2 2v13.333c0 1.096 0.904 2 2 2h22.667c1.096 0 2-0.904 2-2v-13.333c0-1.096-0.904-2-2-2zM2 12h22.667c0.381 0 0.667 0.286 0.667 0.667v13.333c0 0.381-0.286 0.667-0.667 0.667h-22.667c-0.381 0-0.667-0.286-0.667-0.667v-13.333c0-0.381 0.286-0.667 0.667-0.667zM3.333 13.333c-0.368 0-0.667 0.299-0.667 0.667v2.667c-0.006 0.451 0.33 0.667 0.667 0.667s0.673-0.216 0.667-0.667v-2h2c0.451 0.006 0.667-0.33 0.667-0.667s-0.216-0.673-0.667-0.667zM12.667 13.333c-3.306 0-6 2.694-6 6s2.694 6 6 6c3.306 0 6-2.694 6-6s-2.694-6-6-6zM20.667 14.667h2v2c-0.006 0.451 0.33 0.667 0.667 0.667s0.673-0.216 0.667-0.667v-2.667c-0-0.368-0.299-0.667-0.667-0.667h-2.667c-0.464 0-0.667 0.279-0.667 0.667s0.182 0.667 0.667 0.667zM12.667 14.667c2.585 0 4.667 2.081 4.667 4.667s-2.081 4.667-4.667 4.667c-2.585 0-4.667-2.081-4.667-4.667s2.081-4.667 4.667-4.667zM12.667 16c-1.094 0-2 0.906-2 2s0.906 2 2 2c0.373 0 0.667 0.283 0.667 0.667s-0.294 0.667-0.667 0.667h-1.333c-0.451-0.006-0.667 0.33-0.667 0.667s0.216 0.673 0.667 0.667h1.333c1.094 0 2-0.906 2-2s-0.906-2-2-2c-0.373 0-0.667-0.283-0.667-0.667s0.294-0.667 0.667-0.667h1.333c0.451 0.006 0.667-0.33 0.667-0.667s-0.216-0.673-0.667-0.667zM3.333 21.333c-0.376-0.006-0.673 0.29-0.667 0.667v2.667c0 0.368 0.298 0.667 0.667 0.667h2.667c0.451 0.006 0.667-0.33 0.667-0.667s-0.216-0.673-0.667-0.667h-2v-2c0.006-0.368-0.298-0.661-0.667-0.667zM23.333 21.333c-0.368 0.006-0.672 0.298-0.667 0.667v2h-2c-0.451-0.006-0.667 0.33-0.667 0.667s0.216 0.673 0.667 0.667h2.667c0.368-0 0.667-0.299 0.667-0.667v-2.667c0.006-0.376-0.29-0.673-0.667-0.667z"></path>
</svg>
