<!-- Generated by IcoMoon.io -->
<svg version="1.1" xmlns="http://www.w3.org/2000/svg" width="32" height="32" viewBox="0 0 32 32">
<title>lightning</title>
<path fill="#00ff4b" d="M8.628-0.008c-0.318 0.020-0.575 0.26-0.619 0.569l-2.667 17.337c-0.005 0.030-0.008 0.066-0.008 0.102 0 0.368 0.298 0.667 0.667 0.667h5.854l-2.508 12.536c-0.008 0.039-0.013 0.084-0.013 0.13 0 0.368 0.299 0.667 0.667 0.667 0.21 0 0.397-0.097 0.52-0.249l16.001-20.001c0.091-0.113 0.146-0.258 0.146-0.417 0-0.368-0.299-0.667-0.667-0.667-0 0-0 0-0 0h-8.255l4.852-9.703c0.044-0.087 0.070-0.189 0.070-0.297 0-0.368-0.298-0.666-0.666-0.667h-10.667c-0.003-0-0.006-0-0.009-0-0.368 0-0.667 0.298-0.667 0.667s0.299 0.667 0.667 0.667c0.003 0 0.007-0 0.010-0h9.588l-4.852 9.703c-0.044 0.087-0.070 0.189-0.070 0.297 0 0.368 0.298 0.666 0.666 0.667h7.945l-13.422 16.776 2.13-10.646c0.008-0.039 0.013-0.084 0.013-0.13 0-0.368-0.298-0.667-0.666-0.667h-5.891l2.549-16.565c0.006-0.033 0.009-0.072 0.009-0.111 0-0.368-0.299-0.667-0.667-0.667-0.014 0-0.028 0-0.042 0.001z"></path>
</svg>
