<!-- Generated by IcoMoon.io -->
<svg version="1.1" xmlns="http://www.w3.org/2000/svg" width="32" height="32" viewBox="0 0 32 32">
<title>paper-plane</title>
<path fill="#00ff4b" d="M31.333 0c-0.17 0.011-0.321 0.083-0.432 0.195l-18.31 18.311-10.336-5.74 25.365-10.146c0.248-0.101 0.42-0.34 0.42-0.62 0-0.369-0.299-0.667-0.667-0.667-0.089 0-0.174 0.017-0.252 0.049l-26.662 10.665c-0.248 0.101-0.42 0.34-0.42 0.619 0 0.25 0.138 0.468 0.341 0.582l12.003 6.669c0.093 0.052 0.204 0.083 0.323 0.083 0.184 0 0.351-0.075 0.471-0.195l16.414-16.415-10.292 26.306-4.664-9.326c-0.107-0.234-0.339-0.395-0.609-0.395-0.368 0-0.667 0.299-0.667 0.667 0 0.118 0.031 0.229 0.084 0.325l5.332 10.664c0.112 0.22 0.337 0.368 0.596 0.368 0.28 0 0.52-0.173 0.619-0.418l12.002-30.672c0.029-0.072 0.046-0.156 0.046-0.243 0-0.368-0.299-0.667-0.667-0.667-0.013 0-0.027 0-0.040 0.001z"></path>
</svg>
