<!-- Generated by IcoMoon.io -->
<svg version="1.1" xmlns="http://www.w3.org/2000/svg" width="32" height="32" viewBox="0 0 32 32">
<title>coffe</title>
<path fill="#00ff4b" d="M7.333 0c-0.369 0-0.667 0.297-0.667 0.667v2.667c0 0.369 0.297 0.667 0.667 0.667s0.667-0.297 0.667-0.667v-2.667c0-0.369-0.297-0.667-0.667-0.667zM12.667 0c-0.369 0-0.667 0.297-0.667 0.667v2.667c0 0.369 0.297 0.667 0.667 0.667s0.667-0.297 0.667-0.667v-2.667c0-0.369-0.297-0.667-0.667-0.667zM18 0c-0.369 0-0.667 0.297-0.667 0.667v2.667c0 0.369 0.297 0.667 0.667 0.667s0.667-0.297 0.667-0.667v-2.667c0-0.369-0.297-0.667-0.667-0.667zM0.667 5.333c-0.368 0.006-0.672 0.298-0.667 0.667v14c0 4.692 2.977 8.689 7.044 10.667h-6.378c-0.369 0-0.667 0.297-0.667 0.667s0.297 0.667 0.667 0.667h24c0.369 0 0.667-0.297 0.667-0.667s-0.297-0.667-0.667-0.667h-6.378c4.067-1.978 7.044-5.975 7.044-10.667v-14c0.006-0.451-0.33-0.667-0.667-0.667s-0.673 0.216-0.667 0.667v14c0 5.874-5.412 10.667-11.333 10.667s-11.333-4.793-11.333-10.667v-14c0.006-0.376-0.29-0.673-0.667-0.667zM3.333 9.333c-0.369 0-0.667 0.297-0.667 0.667s0.297 0.667 0.667 0.667h18.667c0.369 0 0.667-0.297 0.667-0.667s-0.297-0.667-0.667-0.667zM27.333 9.333c-0.451-0.006-0.667 0.33-0.667 0.667s0.216 0.673 0.667 0.667c1.849 0 3.333 1.485 3.333 3.333s-1.485 3.333-3.333 3.333c-0.451-0.006-0.667 0.33-0.667 0.667s0.216 0.673 0.667 0.667c2.569 0 4.667-2.097 4.667-4.667s-2.097-4.667-4.667-4.667z"></path>
</svg>
