<!-- Generated by IcoMoon.io -->
<svg version="1.1" xmlns="http://www.w3.org/2000/svg" width="32" height="32" viewBox="0 0 32 32">
<title>music</title>
<path fill="#00ff4b" d="M28.646 0c-0.052 0.002-0.104 0.010-0.154 0.023l-14.667 4c-0.29 0.079-0.492 0.342-0.492 0.643v19.755c-0.16-0.155-0.314-0.315-0.495-0.451-1.095-0.822-2.564-1.305-4.172-1.305s-3.077 0.483-4.172 1.305c-1.095 0.822-1.828 2.017-1.828 3.362s0.733 2.54 1.828 3.362c1.095 0.822 2.564 1.305 4.172 1.305s3.077-0.483 4.172-1.305c1.095-0.822 1.828-2.017 1.828-3.362v-22.156l13.333-3.638v18.883c-0.16-0.155-0.314-0.315-0.495-0.451-1.095-0.822-2.564-1.305-4.172-1.305s-3.077 0.483-4.172 1.305c-1.095 0.822-1.828 2.017-1.828 3.362s0.733 2.54 1.828 3.362c1.095 0.822 2.564 1.305 4.172 1.305s3.077-0.483 4.172-1.305c1.095-0.822 1.828-2.017 1.828-3.362v-22.667c0-0.376-0.311-0.667-0.688-0.667zM25.995 5.331c-0.060 0.002-0.12 0.011-0.177 0.029l-9.333 2.667c-0.862 0.204-0.434 1.495 0.365 1.281l9.333-2.667c0.734-0.197 0.598-1.31-0.188-1.31zM23.333 20c1.338 0 2.537 0.413 3.372 1.039s1.294 1.43 1.294 2.294c0 0.864-0.459 1.668-1.294 2.294s-2.035 1.039-3.372 1.039c-1.338 0-2.537-0.413-3.372-1.039s-1.294-1.43-1.294-2.294c0-0.864 0.459-1.668 1.294-2.294s2.035-1.039 3.372-1.039zM8.667 24c1.338 0 2.537 0.413 3.372 1.039s1.294 1.43 1.294 2.294c0 0.864-0.459 1.668-1.294 2.294s-2.035 1.039-3.372 1.039c-1.338 0-2.537-0.413-3.372-1.039s-1.294-1.43-1.294-2.294c0-0.864 0.459-1.668 1.294-2.294s2.035-1.039 3.372-1.039z"></path>
</svg>
