<!-- Generated by IcoMoon.io -->
<svg version="1.1" xmlns="http://www.w3.org/2000/svg" width="32" height="32" viewBox="0 0 32 32">
<title>theme</title>
<path fill="#00ff4b" d="M18.703 16c-0.743-0.041-1.437 0.277-1.924 0.792-0.481 0.508-0.779 1.166-0.779 1.828v1.888c0 0.566-0.483 0.752-0.826 0.844-0.77 0.185-0.633 1.319 0.159 1.315h2.667c0.363 0 0.779-0 1.224-0.115 0.446-0.115 0.871-0.335 1.219-0.669 0.347-0.333 0.584-0.746 0.721-1.18 0.136-0.43 0.173-0.86 0.169-1.26-0.007-0.713-0.143-1.481-0.568-2.156-0.213-0.339-0.496-0.645-0.849-0.878-0.354-0.233-0.769-0.384-1.214-0.409zM18.63 17.333c0.184 0.010 0.383 0.077 0.555 0.19 0.174 0.114 0.331 0.28 0.453 0.474 0.246 0.391 0.357 0.911 0.362 1.458 0.003 0.309-0.028 0.597-0.107 0.844-0.077 0.243-0.207 0.461-0.372 0.62-0.164 0.158-0.389 0.279-0.63 0.341-0.243 0.062-0.544 0.073-0.891 0.073h-0.971c0.416-0.515 0.305-1.041 0.305-1.716v-0.904c0-0.383 0.177-0.754 0.414-1.005 0.231-0.244 0.583-0.392 0.883-0.375zM31.352 5.333c-0.108-0.003-0.215 0.020-0.313 0.068-2.804 1.374-5.507 2.952-8.083 4.716-0.613 0.42-1.261 0.876-1.82 1.49-0.564 0.619-1.026 1.404-1.13 2.318-0.104 0.916 0.181 1.871 0.857 2.547s1.631 0.961 2.547 0.857c0.913-0.104 1.699-0.567 2.318-1.13 0.614-0.559 1.070-1.207 1.49-1.82 1.764-2.576 3.342-5.28 4.716-8.083 0.202-0.35-0.095-0.948-0.581-0.961zM29.484 7.849c-1.059 1.962-2.107 3.934-3.367 5.773-0.411 0.6-0.816 1.16-1.289 1.591-0.468 0.426-1.023 0.729-1.57 0.792-0.528 0.060-1.101-0.124-1.453-0.477s-0.537-0.925-0.477-1.453c0.062-0.547 0.365-1.102 0.792-1.57 0.431-0.473 0.991-0.878 1.591-1.289 1.84-1.26 3.811-2.308 5.773-3.367zM3.333 6.667c-0.368 0-0.667 0.298-0.667 0.667s0.298 0.667 0.667 0.667c0.368 0 0.667-0.298 0.667-0.667s-0.298-0.667-0.667-0.667zM6 6.667c-0.368 0-0.667 0.298-0.667 0.667s0.298 0.667 0.667 0.667c0.368 0 0.667-0.298 0.667-0.667s-0.298-0.667-0.667-0.667zM8.667 6.667c-0.368 0-0.667 0.298-0.667 0.667s0.298 0.667 0.667 0.667c0.368 0 0.667-0.298 0.667-0.667s-0.298-0.667-0.667-0.667zM3.333 9.333c-0.369 0-0.667 0.297-0.667 0.667s0.297 0.667 0.667 0.667h17.333c0.369 0 0.667-0.297 0.667-0.667s-0.297-0.667-0.667-0.667zM2 4c-1.096 0-2 0.904-2 2v20c0 1.096 0.904 2 2 2h25.333c1.096 0 2-0.904 2-2v-9.333c0.006-0.451-0.33-0.667-0.667-0.667s-0.673 0.216-0.667 0.667v9.333c0 0.381-0.286 0.667-0.667 0.667h-25.333c-0.381 0-0.667-0.286-0.667-0.667v-20c0-0.381 0.286-0.667 0.667-0.667h25.333c0.443 0.006 0.668-0.332 0.667-0.667s-0.227-0.667-0.667-0.667z"></path>
</svg>
